<svg width="28" height="30" viewBox="0 0 28 30" fill="none" xmlns="http://www.w3.org/2000/svg">
<mask id="mask0_1944_955" style="mask-type:alpha" maskUnits="userSpaceOnUse" x="5" y="0" width="19" height="28">
<path d="M13.5506 27.9409L10.6814 24.2619C15.6729 20.3682 17.0552 18.1219 18.1371 15.978C18.3037 15.6494 18.4414 15.3068 18.5486 14.9543C19.5097 12.1461 18.7394 10.0016 16.8402 8.57652C15.4592 7.53781 14.0938 7.19393 12.8501 7.19421L14.4464 4.4294C15.9603 4.45266 17.457 4.86198 18.8127 5.64472C20.8799 6.83817 22.3858 8.70396 23.0528 10.8977C23.7594 13.2192 23.4987 15.7026 22.3025 18.0778C20.745 21.1674 18.7368 23.8948 13.5506 27.9409Z" fill="white"/>
<path d="M15.4473 19.9558C14.7332 20.7515 13.84 21.6296 12.684 22.6253C11.6473 22.4385 10.651 22.0731 9.73943 21.5452C5.37116 19.0232 3.87028 13.4147 6.39392 9.04359L11.6152 0L15.6562 2.33305L10.434 11.3782C10.2408 11.7127 10.0916 12.0706 9.98998 12.4432L9.98837 12.4423C9.27139 14.8611 9.931 17.2602 11.6858 18.579C12.9842 19.5553 14.2647 19.9168 15.4473 19.9558Z" fill="white"/>
<path d="M15.4447 19.9583C14.2621 19.9193 12.9817 19.5582 11.6839 18.5823C9.92851 17.2632 9.26889 14.8641 9.98638 12.4456C9.46544 14.3618 10.2729 16.4678 12.0709 17.5059C14.2005 18.7355 16.9295 18.0127 18.1747 15.8967C18.164 15.9226 18.1508 15.9492 18.1385 15.9742C17.5325 17.1785 16.8294 18.4146 15.4447 19.9583Z" fill="white"/>
<path d="M18.5477 14.9532C18.8287 14.0186 18.8449 13.1023 18.5894 12.2578C18.2665 11.1996 17.5175 10.2877 16.4776 9.68731C14.3465 8.45694 11.6915 9.19883 10.4334 11.3779L12.8496 7.19294C14.0933 7.1925 15.4589 7.53634 16.8397 8.5751C18.7382 10.0009 19.5088 12.145 18.5477 14.9532Z" fill="white"/>
</mask>
<g mask="url(#mask0_1944_955)">
<rect x="10.6816" y="-0.454102" width="38.8389" height="23.3033" transform="rotate(30 10.6816 -0.454102)" fill="white"/>
</g>
</svg>
